<!--localStorage.inlineSVGrev=657658;-->
<svg xmlns="http://www.w3.org/2000/svg" xmlns:xlink="http://www.w3.org/1999/xlink" width="0" height="0" style="position:absolute">
    <symbol id="sale01"  viewBox="0 0 25 25">
        <g>
            <circle cx="12.5" cy="12.5" r="12.5" fill="#ff6749"/>
            <path fill="#ffffff" d="M8.773,17.840 C8.687,17.940 8.564,17.991 8.439,17.991 C8.341,17.991 8.243,17.959 8.161,17.894 C7.977,17.744 7.952,17.478 8.106,17.298 L16.786,7.161 C16.939,6.982 17.212,6.957 17.397,7.107 C17.581,7.256 17.606,7.522 17.453,7.702 L8.773,17.840 ZM10.175,11.233 C8.979,11.233 8.005,10.285 8.005,9.121 C8.005,7.956 8.979,7.009 10.175,7.009 C11.372,7.009 12.345,7.956 12.345,9.121 C12.345,10.285 11.372,11.233 10.175,11.233 ZM10.175,7.854 C9.458,7.854 8.873,8.422 8.873,9.121 C8.873,9.820 9.458,10.388 10.175,10.388 C10.893,10.388 11.477,9.820 11.477,9.121 C11.477,8.422 10.893,7.854 10.175,7.854 ZM15.817,13.767 C17.014,13.767 17.987,14.715 17.987,15.879 C17.987,17.044 17.014,17.991 15.817,17.991 C14.621,17.991 13.647,17.044 13.647,15.879 C13.647,14.715 14.621,13.767 15.817,13.767 ZM15.817,17.147 C16.535,17.147 17.119,16.578 17.119,15.879 C17.119,15.181 16.535,14.612 15.817,14.612 C15.099,14.612 14.515,15.181 14.515,15.879 C14.515,16.578 15.099,17.147 15.817,17.147 Z" />
        </g>
    </symbol>
    <symbol id="arrow-left" viewBox="0 0 477.175 477.175" >
        <g>
            <path d="M145.188,238.575l215.5-215.5c5.3-5.3,5.3-13.8,0-19.1s-13.8-5.3-19.1,0l-225.1,225.1c-5.3,5.3-5.3,13.8,0,19.1l225.1,225
                c2.6,2.6,6.1,4,9.5,4s6.9-1.3,9.5-4c5.3-5.3,5.3-13.8,0-19.1L145.188,238.575z"/>
        </g>
     </symbol>
    <symbol id="arrow-right" viewBox="0 0 129 129">
        <g>
            <path d="m40.4,121.3c-0.8,0.8-1.8,1.2-2.9,1.2s-2.1-0.4-2.9-1.2c-1.6-1.6-1.6-4.2 0-5.8l51-51-51-51c-1.6-1.6-1.6-4.2 0-5.8 1.6-1.6 4.2-1.6 5.8,0l53.9,53.9c1.6,1.6 1.6,4.2 0,5.8l-53.9,53.9z"/>
        </g>
    </symbol>
    <symbol id="behance" viewBox="0 0 430.123 430.123">
        <g>
            <path id="Behance" d="M388.432,119.12H280.659V92.35h107.782v26.77H388.432z M208.912,228.895   c6.954,10.771,10.429,23.849,10.429,39.203c0,15.878-3.918,30.122-11.889,42.704c-5.071,8.326-11.367,15.359-18.932,21.021   c-8.52,6.548-18.607,11.038-30.203,13.437c-11.633,2.403-24.224,3.617-37.787,3.617H0V81.247h129.25   c32.579,0.53,55.676,9.969,69.315,28.506c8.184,11.369,12.239,25.011,12.239,40.868c0,16.362-4.104,29.454-12.368,39.401   c-4.597,5.577-11.388,10.65-20.378,15.229C191.675,210.236,202.007,218.086,208.912,228.895z M61.722,186.76h56.632   c11.638,0,21.046-2.212,28.292-6.634c7.241-4.415,10.854-12.263,10.854-23.531c0-12.449-4.784-20.712-14.375-24.689   c-8.244-2.763-18.792-4.186-31.591-4.186H61.722V186.76z M162.953,264.275c0-13.902-5.682-23.513-17.023-28.67   c-6.342-2.931-15.29-4.429-26.763-4.536H61.722v71.322h56.556c11.619,0,20.612-1.521,27.102-4.694   C157.084,291.863,162.953,280.76,162.953,264.275z M428.419,220.736c1.302,8.756,1.891,21.46,1.652,38.065H290.493   c0.77,19.266,7.421,32.739,20.035,40.449c7.607,4.835,16.83,7.196,27.63,7.196c11.388,0,20.67-2.879,27.815-8.797   c3.893-3.137,7.327-7.565,10.296-13.152h51.16c-1.34,11.379-7.5,22.92-18.57,34.648c-17.151,18.641-41.205,27.988-72.097,27.988   c-25.52,0-48.011-7.883-67.533-23.592C249.772,307.777,240,282.211,240,246.746c0-33.257,8.773-58.712,26.378-76.43   c17.67-17.751,40.474-26.586,68.583-26.586c16.661,0,31.68,2.978,45.079,8.965c13.357,5.993,24.396,15.425,33.09,28.388   C420.998,192.499,426.058,205.699,428.419,220.736z M378.062,225.73c-0.938-13.322-5.386-23.405-13.395-30.296   c-7.943-6.91-17.866-10.379-29.706-10.379c-12.886,0-22.836,3.708-29.906,10.996c-7.118,7.273-11.547,17.161-13.362,29.68H378.062   L378.062,225.73z" />
        </g>
    </symbol>
    <symbol id="insta" viewBox="0 0 169.063 169.063">
        <g>
            <path d="M122.406,0H46.654C20.929,0,0,20.93,0,46.655v75.752c0,25.726,20.929,46.655,46.654,46.655h75.752   c25.727,0,46.656-20.93,46.656-46.655V46.655C169.063,20.93,148.133,0,122.406,0z M154.063,122.407   c0,17.455-14.201,31.655-31.656,31.655H46.654C29.2,154.063,15,139.862,15,122.407V46.655C15,29.201,29.2,15,46.654,15h75.752   c17.455,0,31.656,14.201,31.656,31.655V122.407z" />
            <path d="M84.531,40.97c-24.021,0-43.563,19.542-43.563,43.563c0,24.02,19.542,43.561,43.563,43.561s43.563-19.541,43.563-43.561   C128.094,60.512,108.552,40.97,84.531,40.97z M84.531,113.093c-15.749,0-28.563-12.812-28.563-28.561   c0-15.75,12.813-28.563,28.563-28.563s28.563,12.813,28.563,28.563C113.094,100.281,100.28,113.093,84.531,113.093z" />
            <path d="M129.921,28.251c-2.89,0-5.729,1.17-7.77,3.22c-2.051,2.04-3.23,4.88-3.23,7.78c0,2.891,1.18,5.73,3.23,7.78   c2.04,2.04,4.88,3.22,7.77,3.22c2.9,0,5.73-1.18,7.78-3.22c2.05-2.05,3.22-4.89,3.22-7.78c0-2.9-1.17-5.74-3.22-7.78   C135.661,29.421,132.821,28.251,129.921,28.251z" />
        </g>
    </symbol>
    <symbol id="facebook" viewBox="0 0 96.124 96.123">
        <g>
            <path d="M72.089,0.02L59.624,0C45.62,0,36.57,9.285,36.57,23.656v10.907H24.037c-1.083,0-1.96,0.878-1.96,1.961v15.803   c0,1.083,0.878,1.96,1.96,1.96h12.533v39.876c0,1.083,0.877,1.96,1.96,1.96h16.352c1.083,0,1.96-0.878,1.96-1.96V54.287h14.654   c1.083,0,1.96-0.877,1.96-1.96l0.006-15.803c0-0.52-0.207-1.018-0.574-1.386c-0.367-0.368-0.867-0.575-1.387-0.575H56.842v-9.246   c0-4.444,1.059-6.7,6.848-6.7l8.397-0.003c1.082,0,1.959-0.878,1.959-1.96V1.98C74.046,0.899,73.17,0.022,72.089,0.02z"/>
        </g>
    </symbol>
    <symbol id="youtube" viewBox="0 0 310 310">
        <g id="XMLID_822_">
            <path id="XMLID_823_" d="M297.917,64.645c-11.19-13.302-31.85-18.728-71.306-18.728H83.386c-40.359,0-61.369,5.776-72.517,19.938   C0,79.663,0,100.008,0,128.166v53.669c0,54.551,12.896,82.248,83.386,82.248h143.226c34.216,0,53.176-4.788,65.442-16.527   C304.633,235.518,310,215.863,310,181.835v-53.669C310,98.471,309.159,78.006,297.917,64.645z M199.021,162.41l-65.038,33.991   c-1.454,0.76-3.044,1.137-4.632,1.137c-1.798,0-3.592-0.484-5.181-1.446c-2.992-1.813-4.819-5.056-4.819-8.554v-67.764   c0-3.492,1.822-6.732,4.808-8.546c2.987-1.814,6.702-1.938,9.801-0.328l65.038,33.772c3.309,1.718,5.387,5.134,5.392,8.861   C204.394,157.263,202.325,160.684,199.021,162.41z" />
        </g>
    </symbol>
    <symbol id="skype" viewBox="0 0 430.123 430.123">
        <g>
            <path id="Skype" d="M412.164,246.198c1.605-10.155,2.45-20.544,2.45-31.148c0-110.215-89.342-199.555-199.56-199.555   c-10.576,0-20.995,0.871-31.141,2.458C165.534,6.581,143.842,0,120.595,0C53.996,0,0.005,53.984,0.005,120.59   c0,23.242,6.585,44.916,17.952,63.332c-1.573,10.172-2.439,20.528-2.439,31.132c0,110.223,89.34,199.536,199.532,199.536   c10.585,0,21.007-0.816,31.152-2.417c18.398,11.35,40.072,17.949,63.314,17.949c66.617,0,120.602-53.998,120.602-120.602   C430.123,286.269,423.542,264.6,412.164,246.198z M309.801,305.81c-8.442,12.153-20.843,21.65-37.047,28.479   c-16.237,6.847-35.428,10.254-57.59,10.254c-26.562,0-48.554-4.648-65.913-14.034c-12.305-6.721-22.313-15.737-30.007-26.98   c-7.71-11.252-11.619-22.271-11.619-33.015c0-6.338,2.417-11.85,7.122-16.344c4.754-4.527,10.877-6.796,18.104-6.796   c5.92,0,11.005,1.783,15.145,5.316c4.109,3.532,7.556,8.667,10.375,15.443c3.379,7.85,7.049,14.412,10.954,19.648   c3.881,5.171,9.343,9.488,16.417,12.867c6.996,3.388,16.307,5.082,27.958,5.082c15.945,0,28.831-3.449,38.693-10.253   c9.912-6.866,14.673-15.22,14.673-25.314c0-8.051-2.567-14.445-7.831-19.43c-5.312-5.05-12.172-8.896-20.685-11.579   c-8.546-2.711-20.02-5.586-34.399-8.615c-19.308-4.214-35.456-9.119-48.533-14.752c-13.094-5.654-23.522-13.383-31.251-23.146   c-7.745-9.859-11.607-22.113-11.607-36.627c0-13.84,4.077-26.217,12.239-36.989c8.158-10.802,19.961-19.07,35.351-24.829   c15.336-5.757,33.391-8.637,54.075-8.637c16.541,0,30.849,1.914,42.96,5.722c12.078,3.836,22.146,8.898,30.196,15.25   c7.999,6.338,13.885,13.023,17.613,20.038c3.725,7.036,5.601,13.908,5.601,20.614c0,6.235-2.417,11.89-7.127,16.846   c-4.709,4.963-10.733,7.493-17.768,7.47c-6.342,0-11.317-1.463-14.767-4.56c-3.36-2.996-6.889-7.766-10.706-14.414   c-4.825-9.276-10.604-16.503-17.324-21.672c-6.543-5.073-17.338-7.714-32.359-7.682c-13.898,0-25.018,2.84-33.411,8.394   c-8.445,5.643-12.482,12.19-12.501,19.861c0.014,4.807,1.396,8.86,4.177,12.326c2.824,3.498,6.753,6.529,11.803,9.084   c5.052,2.595,10.191,4.602,15.355,6.046c5.225,1.481,13.894,3.622,25.944,6.457c15.112,3.257,28.819,6.896,41.136,10.862   c12.293,3.986,22.784,8.793,31.451,14.52c8.736,5.71,15.564,12.99,20.438,21.783c4.909,8.807,7.354,19.564,7.354,32.222   C322.509,279.968,318.263,293.676,309.801,305.81z"/>
        </g>
    </symbol>
    <symbol id="email" viewBox="0 0 31.012 31.012">
        <g>
            <path d="M28.512,26.529H2.5c-1.378,0-2.5-1.121-2.5-2.5V6.982c0-1.379,1.122-2.5,2.5-2.5h26.012c1.378,0,2.5,1.121,2.5,2.5v17.047   C31.012,25.408,29.89,26.529,28.512,26.529z M2.5,5.482c-0.827,0-1.5,0.673-1.5,1.5v17.047c0,0.827,0.673,1.5,1.5,1.5h26.012   c0.827,0,1.5-0.673,1.5-1.5V6.982c0-0.827-0.673-1.5-1.5-1.5H2.5z" />
            <path d="M15.506,18.018c-0.665,0-1.33-0.221-1.836-0.662L0.891,6.219c-0.208-0.182-0.23-0.497-0.048-0.705   c0.182-0.21,0.498-0.23,0.706-0.049l12.778,11.137c0.64,0.557,1.72,0.556,2.358,0L29.46,5.466c0.207-0.183,0.522-0.162,0.706,0.049   c0.182,0.208,0.16,0.523-0.048,0.705L17.342,17.355C16.836,17.797,16.171,18.018,15.506,18.018z" />
        </g>
    </symbol>
    <symbol id="blog-facebook" viewBox="0 0 49.652 49.652">
        <g>
            <g>
                <path d="M24.826,0C11.137,0,0,11.137,0,24.826c0,13.688,11.137,24.826,24.826,24.826c13.688,0,24.826-11.138,24.826-24.826
				C49.652,11.137,38.516,0,24.826,0z M31,25.7h-4.039c0,6.453,0,14.396,0,14.396h-5.985c0,0,0-7.866,0-14.396h-2.845v-5.088h2.845
				v-3.291c0-2.357,1.12-6.04,6.04-6.04l4.435,0.017v4.939c0,0-2.695,0-3.219,0c-0.524,0-1.269,0.262-1.269,1.386v2.99h4.56L31,25.7z
				"/>
            </g>
        </g>
    </symbol>
    <symbol id="blog-twitter" viewBox="0 0 49.652 49.652">
        <g>
            <g>
                <path d="M24.826,0C11.137,0,0,11.137,0,24.826c0,13.688,11.137,24.826,24.826,24.826c13.688,0,24.826-11.138,24.826-24.826
				C49.652,11.137,38.516,0,24.826,0z M35.901,19.144c0.011,0.246,0.017,0.494,0.017,0.742c0,7.551-5.746,16.255-16.259,16.255
				c-3.227,0-6.231-0.943-8.759-2.565c0.447,0.053,0.902,0.08,1.363,0.08c2.678,0,5.141-0.914,7.097-2.446
				c-2.5-0.046-4.611-1.698-5.338-3.969c0.348,0.066,0.707,0.103,1.074,0.103c0.521,0,1.027-0.068,1.506-0.199
				c-2.614-0.524-4.583-2.833-4.583-5.603c0-0.024,0-0.049,0.001-0.072c0.77,0.427,1.651,0.685,2.587,0.714
				c-1.532-1.023-2.541-2.773-2.541-4.755c0-1.048,0.281-2.03,0.773-2.874c2.817,3.458,7.029,5.732,11.777,5.972
				c-0.098-0.419-0.147-0.854-0.147-1.303c0-3.155,2.558-5.714,5.713-5.714c1.644,0,3.127,0.694,4.171,1.804
				c1.303-0.256,2.523-0.73,3.63-1.387c-0.43,1.335-1.333,2.454-2.516,3.162c1.157-0.138,2.261-0.444,3.282-0.899
				C37.987,17.334,37.018,18.341,35.901,19.144z"/>
            </g>
        </g>
    </symbol>
    <symbol id="blog-p" viewBox="0 0 508.52 508.52">
        <g>
            <g>
                <g>
                    <path  d="M254.26,0C113.845,0,0,113.845,0,254.26s113.845,254.26,254.26,254.26
					s254.26-113.845,254.26-254.26C508.52,113.813,394.675,0,254.26,0z M274.092,323.005c-18.593-1.43-26.379-10.647-40.936-19.514
					c-8.009,42.016-17.798,82.317-46.784,103.325c-8.963-63.47,13.126-111.143,23.392-161.773
					c-17.48-29.462,2.098-88.673,38.965-74.085c45.354,17.957-39.315,109.427,17.544,120.869
					c59.338,11.918,83.588-103.007,46.784-140.383c-53.204-53.967-154.781-1.24-142.29,76.024c3.051,18.879,22.534,24.6,7.787,50.693
					c-34.039-7.501-44.209-34.389-42.906-70.176c2.098-58.575,52.632-99.575,103.325-105.264
					c64.105-7.183,124.238,23.519,132.533,83.81C380.881,254.578,342.583,328.313,274.092,323.005z"/>
                </g>
            </g>
        </g>
    </symbol>
    <symbol id="map-pointer" viewBox="0 0 16 16">
        <g>
            <path d="M13,5.5C13,2.463,10.762,0,8,0S3,2.463,3,5.5C3,5.669,3.007,5.835,3.021,6H3c0,3.021,5,10,5,10   s5-6.994,5-10h-0.021C12.993,5.835,13,5.669,13,5.5z M8,7C6.896,7,6,6.104,6,5s0.896-2,2-2s2,0.896,2,2S9.104,7,8,7z"/>
        </g>
    </symbol>
    <symbol id="tel" viewBox="0 0 348.077 348.077">
        <g>
            <g>
                <g>
                    <path d="M340.273,275.083l-53.755-53.761c-10.707-10.664-28.438-10.34-39.518,0.744l-27.082,27.076     c-1.711-0.943-3.482-1.928-5.344-2.973c-17.102-9.476-40.509-22.464-65.14-47.113c-24.704-24.701-37.704-48.144-47.209-65.257     c-1.003-1.813-1.964-3.561-2.913-5.221l18.176-18.149l8.936-8.947c11.097-11.1,11.403-28.826,0.721-39.521L73.39,8.194     C62.708-2.486,44.969-2.162,33.872,8.938l-15.15,15.237l0.414,0.411c-5.08,6.482-9.325,13.958-12.484,22.02     C3.74,54.28,1.927,61.603,1.098,68.941C-6,127.785,20.89,181.564,93.866,254.541c100.875,100.868,182.167,93.248,185.674,92.876     c7.638-0.913,14.958-2.738,22.397-5.627c7.992-3.122,15.463-7.361,21.941-12.43l0.331,0.294l15.348-15.029     C350.631,303.527,350.95,285.795,340.273,275.083z"/>
                </g>
            </g>
        </g>
    </symbol>
    <symbol id="email-fill" viewBox="0 0 511.626 511.626">
        <g>
            <g>
                <path d="M49.106,178.729c6.472,4.567,25.981,18.131,58.528,40.685c32.548,22.554,57.482,39.92,74.803,52.099
				c1.903,1.335,5.946,4.237,12.131,8.71c6.186,4.476,11.326,8.093,15.416,10.852c4.093,2.758,9.041,5.852,14.849,9.277
				c5.806,3.422,11.279,5.996,16.418,7.7c5.14,1.718,9.898,2.569,14.275,2.569h0.287h0.288c4.377,0,9.137-0.852,14.277-2.569
				c5.137-1.704,10.615-4.281,16.416-7.7c5.804-3.429,10.752-6.52,14.845-9.277c4.093-2.759,9.229-6.376,15.417-10.852
				c6.184-4.477,10.232-7.375,12.135-8.71c17.508-12.179,62.051-43.11,133.615-92.79c13.894-9.703,25.502-21.411,34.827-35.116
				c9.332-13.699,13.993-28.07,13.993-43.105c0-12.564-4.523-23.319-13.565-32.264c-9.041-8.947-19.749-13.418-32.117-13.418H45.679
				c-14.655,0-25.933,4.948-33.832,14.844C3.949,79.562,0,91.934,0,106.779c0,11.991,5.236,24.985,15.703,38.974
				C26.169,159.743,37.307,170.736,49.106,178.729z"/>
                <path d="M483.072,209.275c-62.424,42.251-109.824,75.087-142.177,98.501c-10.849,7.991-19.65,14.229-26.409,18.699
				c-6.759,4.473-15.748,9.041-26.98,13.702c-11.228,4.668-21.692,6.995-31.401,6.995h-0.291h-0.287
				c-9.707,0-20.177-2.327-31.405-6.995c-11.228-4.661-20.223-9.229-26.98-13.702c-6.755-4.47-15.559-10.708-26.407-18.699
				c-25.697-18.842-72.995-51.68-141.896-98.501C17.987,202.047,8.375,193.762,0,184.437v226.685c0,12.57,4.471,23.319,13.418,32.265
				c8.945,8.949,19.701,13.422,32.264,13.422h420.266c12.56,0,23.315-4.473,32.261-13.422c8.949-8.949,13.418-19.694,13.418-32.265
				V184.437C503.441,193.569,493.927,201.854,483.072,209.275z"/>
            </g>
        </g>
    </symbol>
</svg>
